PathFileType	4	(X/Y/Z)	Patient4_TMGait_0pt5_02_right_29.trc.trc
DataRate	CameraRate	NumFrames	NumMarkers	Units	OrigDataRate	OrigDataStartFrame	OrigNumFrames
78.212290502793	78.212290502793	4	33	mm	78.212290502793	89	       141
Frame#	Time	Sacral			L.Shoulder			Chest			R.Shoulder			Neck			R.ASIS			L.ASIS			R.Thigh.Superior			R.Thigh.Lateral			R.Thigh.Inferior			R.Patella			L.Thigh.Superior			L.Thigh.Lateral			L.Thigh.Inferior			L.Patella			L.Shank.Superior			L.Shank.Lateral			L.Shank.Inferior			R.Shank.Superior			R.Shank.Lateral			R.Shank.Inferior			R.Heel			R.Midfoot.Superior			R.Midfoot.Lateral			R.Toe			L.Heel			L.Midfoot.Lateral			L.Midfoot.Superior			L.Toe			L.Elbow			L.Wrist			R.Elbow			R.Wrist			
		X1	Y1	Z1	X2	Y2	Z2	X3	Y3	Z3	X4	Y4	Z4	X5	Y5	Z5	X6	Y6	Z6	X7	Y7	Z7	X8	Y8	Z8	X9	Y9	Z9	X10	Y10	Z10	X11	Y11	Z11	X12	Y12	Z12	X13	Y13	Z13	X14	Y14	Z14	X15	Y15	Z15	X16	Y16	Z16	X17	Y17	Z17	X18	Y18	Z18	X19	Y19	Z19	X20	Y20	Z20	X21	Y21	Z21	X22	Y22	Z22	X23	Y23	Z23	X24	Y24	Z24	X25	Y25	Z25	X26	Y26	Z26	X27	Y27	Z27	X28	Y28	Z28	X29	Y29	Z29	X30	Y30	Z30	X31	Y31	Z31	X32	Y32	Z32	X33	Y33	Z33	

89	38.975142857143	703.107684901964	1005.086855187368	469.948283796210	864.720713362226	1433.415088034335	281.591615978956	979.870384737849	1362.540057884551	433.688801721985	908.707811037901	1437.161742800248	613.511038442722	874.396838188182	1492.225384648669	431.818537302475	931.923192376352	936.997146219064	577.275424884273	910.314204439134	957.331915331771	304.255259043351	962.984781341043	729.458289541451	557.407122483795	880.059532967537	624.811816208398	623.879868868382	956.607981821496	561.835822005116	549.303815356163	944.150353036485	454.242570416344	569.547935495528	979.150116563876	760.707547859537	339.286749674873	907.763002477330	635.495935829065	279.507339539023	1002.459774670227	568.592456092238	342.871784455033	1012.299527606389	496.130115371231	351.308207273211	985.923917021432	421.590373232283	344.504378136004	900.059327250612	304.545441538977	295.165661418989	954.468868444564	195.173202506913	365.042295810139	867.577331876867	387.611031268441	575.521021247928	749.095735764131	343.991178281714	636.662602090506	735.194617571281	236.353515073736	585.431768550378	533.367133166325	163.948190102483	560.442181963951	703.992936707594	118.147136203637	597.390673802646	597.634170763187	111.557947139687	634.234176349191	778.106859327616	31.983422662748	626.122501445059	829.160045160300	38.376012773821	407.345854972541	902.133179778595	35.970675199385	325.852817372512	985.997306735133	96.642406083671	351.782236141512	1114.012108549276	43.038151700717	321.451007173031	770.009087331991	1094.382772477093	164.925166132567	858.683746261171	846.539712244301	155.595972527355	982.340600850357	1100.874549271024	725.776440361505	1215.563666784987	1085.582175564471	630.848471999218	
90	38.987928571429	702.613696217379	1005.323665424914	467.070562283514	866.184431298308	1433.762771515179	279.306585887288	980.384979748886	1362.527280348887	431.979361935643	908.402466498758	1437.137932868205	611.483086841475	875.148513436619	1492.460533072857	429.591782157607	931.281047936026	937.193187007155	575.055316205864	910.332717610120	957.529965104544	301.922310260084	967.332622374826	731.719004755903	554.789473314767	887.550764265557	625.472815716896	621.912810770723	965.776009345873	563.892998996883	547.283864934608	954.806841677925	455.160073301097	568.185199913571	978.129615141930	759.968635815882	336.463877558611	905.409544057212	635.339246239970	277.537731071724	999.468360859068	567.798810084014	340.997906471866	1008.699527513081	495.400510786547	349.735828981827	981.912004922707	420.899770311984	343.169922093907	895.412225921842	304.218822481727	294.152249036530	949.022127752123	194.791841082913	364.522741740090	876.651366428229	389.160322785988	574.201732264681	756.529425588011	349.201884711024	634.803327456045	740.236204375184	241.579921518789	584.436102176746	537.218220442812	177.714018771765	558.318883782756	704.870138633339	122.438633171297	596.541321707132	597.946150992563	122.101383420502	632.670800365264	773.095020227818	31.076859155909	626.309537694014	822.764615253461	38.397884784620	407.198332094019	895.737168590480	35.918636641978	325.740715944663	979.682613032555	96.507515098755	351.681557078223	1107.680233109106	42.685080426469	321.377809542553	773.750153687807	1094.871560081429	160.227960211165	870.564761481752	849.999980580533	152.584378647084	974.753469671510	1098.639321113883	723.373007542297	1209.489341853794	1069.911257140031	634.166554730705	
91	39.000714285714	701.993796621434	1005.530984060085	464.316298547249	867.486165008422	1434.099700905761	277.230812655380	980.758541253284	1362.465995302071	430.439432997271	907.992388050397	1436.998503768105	609.662799268272	875.840399121110	1492.669535588902	427.598040047096	930.479490665410	937.384707009879	572.886390524565	910.216492634580	957.689287925615	299.664329688543	971.490182431383	734.252927878906	552.139883980022	894.968506369691	626.450277175913	619.964747519466	974.802545167403	566.397157693912	545.211511092211	965.526849874371	456.579202207003	566.630069559357	977.035084062607	759.279759469780	333.772964165442	902.964861080994	635.194197981995	275.678181986194	996.424707404956	567.021936843312	339.164000159721	1005.058398954678	494.691953768735	348.225353076049	977.865289930469	420.230576507230	341.894454980874	890.727136864318	303.923568801900	293.182169010896	943.546146628352	194.427327383993	364.015446241497	885.945823252449	391.070695976853	572.695073828233	764.368690458091	354.561285134854	632.774866808255	745.856670981873	247.015930532197	583.203531110547	542.138958318301	191.291809712088	555.734182198874	706.562863127524	127.230538908930	595.594079761710	599.243769710513	132.810335360506	630.766887819699	768.902325760253	30.368670243618	626.518053823987	816.374962177603	38.422793629740	407.048682671610	889.343531463143	35.877491190545	325.622438341952	973.354526228961	96.399968850396	351.567845379276	1101.336043689898	42.399023393934	321.291864945211	777.678017949060	1095.323733118526	155.596561491835	882.574070238580	853.765092552514	149.697941858634	966.721974775615	1096.306534149350	721.031793764508	1202.109837344793	1053.572818263216	638.088037240849	
92	39.013500000000	701.273587823767	1005.749623556655	461.683799246901	868.642361404928	1434.453777968206	275.351706205035	980.998210874067	1362.398120600537	429.067397661077	907.470890557708	1436.796638586221	608.039159009652	876.475629263315	1492.886171743373	425.824675593573	929.521829097718	937.613125593780	570.776911768847	909.987550026031	957.841290508775	297.510339761128	975.378908683118	737.061192057399	549.508924566520	902.194114495524	627.773647888230	618.062774874779	983.565847127245	569.363992927155	543.135630245173	976.187912443364	458.524964371437	564.949353003026	975.849790148765	758.629073350787	331.234703693944	900.396581159892	635.065133942989	273.947882238707	993.278396538273	566.255448280785	337.405670975399	1001.320467701528	494.005172822281	346.811748980077	973.733918686169	419.594534828758	340.702243658643	885.969907187319	303.663678051785	292.271517488577	938.018465282619	194.087065757236	363.533451852965	895.361091699399	393.348841310015	571.054157948160	772.508800114421	359.970062594129	630.604578937846	752.044077157188	252.529144572558	581.753094987768	548.058512879241	204.206331934375	552.734604762397	709.207239578954	132.359451672463	594.535599048008	601.622397517527	143.287482000419	628.540990605997	765.899946190687	30.001511867845	626.684438322365	809.987507379868	38.448141745398	406.904008909843	882.948084465275	35.845986478644	325.501432114981	967.009815970879	96.318017773169	351.444884938082	1094.976386265723	42.176171124706	321.195159801759	781.801684376639	1095.753491835161	151.077627869486	894.657094439668	857.829504493110	146.970977480381	958.339206693737	1093.990260762847	718.792769151579	1193.362910671793	1036.644390259746	642.597748331412	
